Coordinates
version=1
nRows=5
nColumns=40
inDegrees=yes

Units are S.I. units (second, meters, Newtons, ...)
If the header above contains a line with 'inDegrees', this indicates whether rotational values are in degrees (yes) or radians (no).

endheader
time	pelvis_tilt	pelvis_list	pelvis_rotation	pelvis_tx	pelvis_ty	pelvis_tz	hip_flexion_r	hip_adduction_r	hip_rotation_r	knee_angle_r	knee_angle_r_beta	ankle_angle_r	subtalar_angle_r	mtp_angle_r	hip_flexion_l	hip_adduction_l	hip_rotation_l	knee_angle_l	knee_angle_l_beta	ankle_angle_l	subtalar_angle_l	mtp_angle_l	lumbar_extension	lumbar_bending	lumbar_rotation	arm_flex_r	arm_add_r	arm_rot_r	elbow_flex_r	pro_sup_r	wrist_flex_r	wrist_dev_r	arm_flex_l	arm_add_l	arm_rot_l	elbow_flex_l	pro_sup_l	wrist_flex_l	wrist_dev_l
      0.37000000	     18.79218019	      1.73257198	     -1.92132128	      0.36441378	      0.89619306	     -0.21559656	      6.32999364	     -4.87226080	     -4.33436035	     31.57217805	      0.55103846	      9.90014978	      0.00000000	      0.00000000	    -29.26174188	      7.40398793	     -6.91575587	      7.22211394	      0.12604967	     13.62076497	      0.00000000	      0.00000000	    -37.20254257	     -1.63720891	     -2.14161413	     -4.92129713	     -4.72312851	      0.68798754	     25.02340596	     88.22769836	    -12.87040171	      9.26810214	     14.27124164	     -8.92655854	     -6.54976389	     56.73139342	     88.84457937	      3.01476585	     12.36601204
      0.38000000	     18.07147318	      1.73650752	     -1.55347823	      0.37919656	      0.89311562	     -0.21586106	      7.74810962	     -4.45382093	     -4.48701099	     28.19840421	      0.49215500	      9.72337569	      0.00000000	      0.00000000	    -29.50461937	      7.24434505	     -6.87119296	      7.34516775	      0.12819736	     14.25678326	      0.00000000	      0.00000000	    -36.39232989	     -1.25364711	     -2.35603064	     -6.27038102	     -4.57713981	      0.96728144	     23.04990482	     88.24629432	    -13.61187075	      9.37269607	     15.94309733	     -9.32568921	     -5.56257058	     58.35961530	     88.80060306	      3.43492147	     12.26072024
      0.39000000	     17.28706929	      1.94663381	     -1.31014302	      0.39397280	      0.88974418	     -0.21579812	      9.20021826	     -4.21039800	     -4.11624272	     24.91804985	      0.43490201	      9.51782779	      0.00000000	      0.00000000	    -29.61516831	      7.29875734	     -6.78793621	      7.60016169	      0.13264785	     14.71991205	      0.00000000	      0.00000000	    -35.50298778	     -1.15436036	     -2.69091313	     -7.59083149	     -4.37729022	      1.17590913	     21.33704186	     88.26731572	    -13.95079355	      9.63244933	     17.47760806	     -9.84122148	     -4.59898281	     60.06772332	     88.77170983	      3.74412218	     12.12713308
      0.40000000	     16.52382139	      2.08411007	     -0.90538897	      0.40900748	      0.88638374	     -0.21575491	     10.43905722	     -3.93212917	     -3.85204286	     21.63688887	      0.37763495	      8.96929481	      0.00000000	      0.00000000	    -29.69273554	      7.15217900	     -6.64269871	      8.04634264	      0.14043517	     15.23430859	      0.00000000	      0.00000000	    -34.57825928	     -0.93092573	     -3.09500363	     -8.92639648	     -4.17732433	      1.74676815	     19.75742695	     88.26361307	    -14.31114165	      9.81403752	     18.97203123	    -10.39555693	     -3.56119241	     61.60496411	     88.74346822	      4.04014869	     12.08253952
      0.41000000	     15.75764267	      2.19856958	     -0.28386520	      0.42439965	      0.88303042	     -0.21593769	     11.52627781	     -3.71719899	     -3.68749071	     18.53612502	      0.32351641	      8.25837177	      0.00000000	      0.00000000	    -29.73723697	      6.84422213	     -6.30972551	      8.63136670	      0.15064577	     15.73110092	      0.00000000	      0.00000000	    -33.58887571	     -0.59683550	     -3.84482176	    -10.14832502	     -4.00048984	      2.97535161	     18.16972662	     88.14966119	    -14.80059387	      9.80345893	     20.22300646	    -11.05782648	     -2.63413447	     63.18458912	     88.72570635	      4.25914926	     12.15557611
